<mxfile host="app.diagrams.net" agent="Mozilla/5.0 (Windows NT 10.0; Win64; x64) AppleWebKit/537.36 (KHTML, like Gecko) Chrome/133.0.0.0 Safari/537.36" version="26.0.16">
  <diagram name="Page-1" id="J59PzGIV-IZARhgNcw3m">
    <mxGraphModel dx="993" dy="568" grid="1" gridSize="10" guides="1" tooltips="1" connect="1" arrows="1" fold="1" page="1" pageScale="1" pageWidth="850" pageHeight="1100" math="0" shadow="0">
      <root>
        <mxCell id="0" />
        <mxCell id="1" parent="0" />
        <mxCell id="nNxd906b-8G5X-YyZnIa-1" value="VPC" style="points=[[0,0],[0.25,0],[0.5,0],[0.75,0],[1,0],[1,0.25],[1,0.5],[1,0.75],[1,1],[0.75,1],[0.5,1],[0.25,1],[0,1],[0,0.75],[0,0.5],[0,0.25]];outlineConnect=0;gradientColor=none;html=1;whiteSpace=wrap;fontSize=12;fontStyle=0;container=1;pointerEvents=0;collapsible=0;recursiveResize=0;shape=mxgraph.aws4.group;grIcon=mxgraph.aws4.group_vpc2;strokeColor=#8C4FFF;fillColor=none;verticalAlign=top;align=left;spacingLeft=30;fontColor=#AAB7B8;dashed=0;" vertex="1" parent="1">
          <mxGeometry x="40" y="130" width="390" height="460" as="geometry" />
        </mxCell>
        <mxCell id="oJM-QH1wbEqwgT6jP4RW-5" value="Public subnet" style="points=[[0,0],[0.25,0],[0.5,0],[0.75,0],[1,0],[1,0.25],[1,0.5],[1,0.75],[1,1],[0.75,1],[0.5,1],[0.25,1],[0,1],[0,0.75],[0,0.5],[0,0.25]];outlineConnect=0;gradientColor=none;html=1;whiteSpace=wrap;fontSize=12;fontStyle=0;container=1;pointerEvents=0;collapsible=0;recursiveResize=0;shape=mxgraph.aws4.group;grIcon=mxgraph.aws4.group_security_group;grStroke=0;strokeColor=#7AA116;fillColor=#F2F6E8;verticalAlign=top;align=left;spacingLeft=30;fontColor=#248814;dashed=0;" parent="nNxd906b-8G5X-YyZnIa-1" vertex="1">
          <mxGeometry x="30" y="100" width="330" height="150" as="geometry" />
        </mxCell>
        <mxCell id="nNxd906b-8G5X-YyZnIa-3" value="EC2" style="sketch=0;points=[[0,0,0],[0.25,0,0],[0.5,0,0],[0.75,0,0],[1,0,0],[0,1,0],[0.25,1,0],[0.5,1,0],[0.75,1,0],[1,1,0],[0,0.25,0],[0,0.5,0],[0,0.75,0],[1,0.25,0],[1,0.5,0],[1,0.75,0]];outlineConnect=0;fontColor=#232F3E;fillColor=#ED7100;strokeColor=#ffffff;dashed=0;verticalLabelPosition=bottom;verticalAlign=top;align=center;html=1;fontSize=12;fontStyle=0;aspect=fixed;shape=mxgraph.aws4.resourceIcon;resIcon=mxgraph.aws4.ec2;" vertex="1" parent="oJM-QH1wbEqwgT6jP4RW-5">
          <mxGeometry x="20" y="79" width="38" height="38" as="geometry" />
        </mxCell>
        <mxCell id="nNxd906b-8G5X-YyZnIa-4" value="EC2" style="sketch=0;points=[[0,0,0],[0.25,0,0],[0.5,0,0],[0.75,0,0],[1,0,0],[0,1,0],[0.25,1,0],[0.5,1,0],[0.75,1,0],[1,1,0],[0,0.25,0],[0,0.5,0],[0,0.75,0],[1,0.25,0],[1,0.5,0],[1,0.75,0]];outlineConnect=0;fontColor=#232F3E;fillColor=#ED7100;strokeColor=#ffffff;dashed=0;verticalLabelPosition=bottom;verticalAlign=top;align=center;html=1;fontSize=12;fontStyle=0;aspect=fixed;shape=mxgraph.aws4.resourceIcon;resIcon=mxgraph.aws4.ec2;" vertex="1" parent="oJM-QH1wbEqwgT6jP4RW-5">
          <mxGeometry x="80" y="78" width="38" height="38" as="geometry" />
        </mxCell>
        <mxCell id="nNxd906b-8G5X-YyZnIa-5" value="EC2" style="sketch=0;points=[[0,0,0],[0.25,0,0],[0.5,0,0],[0.75,0,0],[1,0,0],[0,1,0],[0.25,1,0],[0.5,1,0],[0.75,1,0],[1,1,0],[0,0.25,0],[0,0.5,0],[0,0.75,0],[1,0.25,0],[1,0.5,0],[1,0.75,0]];outlineConnect=0;fontColor=#232F3E;fillColor=#ED7100;strokeColor=#ffffff;dashed=0;verticalLabelPosition=bottom;verticalAlign=top;align=center;html=1;fontSize=12;fontStyle=0;aspect=fixed;shape=mxgraph.aws4.resourceIcon;resIcon=mxgraph.aws4.ec2;" vertex="1" parent="oJM-QH1wbEqwgT6jP4RW-5">
          <mxGeometry x="140" y="78" width="38" height="38" as="geometry" />
        </mxCell>
        <mxCell id="UBAS4pGQuPnV54A2ei4c-2" value="&lt;b&gt;NGW&lt;/b&gt;&lt;div&gt;(Elastic IP)&lt;/div&gt;" style="sketch=0;outlineConnect=0;fontColor=#232F3E;gradientColor=none;fillColor=#8C4FFF;strokeColor=none;dashed=0;verticalLabelPosition=bottom;verticalAlign=top;align=center;html=1;fontSize=12;fontStyle=0;aspect=fixed;pointerEvents=1;shape=mxgraph.aws4.nat_gateway;" parent="oJM-QH1wbEqwgT6jP4RW-5" vertex="1">
          <mxGeometry x="220" y="78" width="22" height="22" as="geometry" />
        </mxCell>
        <mxCell id="oJM-QH1wbEqwgT6jP4RW-4" value="Private subnet" style="points=[[0,0],[0.25,0],[0.5,0],[0.75,0],[1,0],[1,0.25],[1,0.5],[1,0.75],[1,1],[0.75,1],[0.5,1],[0.25,1],[0,1],[0,0.75],[0,0.5],[0,0.25]];outlineConnect=0;gradientColor=none;html=1;whiteSpace=wrap;fontSize=12;fontStyle=0;container=1;pointerEvents=0;collapsible=0;recursiveResize=0;shape=mxgraph.aws4.group;grIcon=mxgraph.aws4.group_security_group;grStroke=0;strokeColor=#00A4A6;fillColor=#E6F6F7;verticalAlign=top;align=left;spacingLeft=30;fontColor=#147EBA;dashed=0;" parent="nNxd906b-8G5X-YyZnIa-1" vertex="1">
          <mxGeometry x="30" y="310" width="330" height="140" as="geometry" />
        </mxCell>
        <mxCell id="nNxd906b-8G5X-YyZnIa-7" value="EC2" style="sketch=0;points=[[0,0,0],[0.25,0,0],[0.5,0,0],[0.75,0,0],[1,0,0],[0,1,0],[0.25,1,0],[0.5,1,0],[0.75,1,0],[1,1,0],[0,0.25,0],[0,0.5,0],[0,0.75,0],[1,0.25,0],[1,0.5,0],[1,0.75,0]];outlineConnect=0;fontColor=#232F3E;fillColor=#ED7100;strokeColor=#ffffff;dashed=0;verticalLabelPosition=bottom;verticalAlign=top;align=center;html=1;fontSize=12;fontStyle=0;aspect=fixed;shape=mxgraph.aws4.resourceIcon;resIcon=mxgraph.aws4.ec2;" vertex="1" parent="oJM-QH1wbEqwgT6jP4RW-4">
          <mxGeometry x="20" y="70" width="38" height="38" as="geometry" />
        </mxCell>
        <mxCell id="nNxd906b-8G5X-YyZnIa-8" value="EC2" style="sketch=0;points=[[0,0,0],[0.25,0,0],[0.5,0,0],[0.75,0,0],[1,0,0],[0,1,0],[0.25,1,0],[0.5,1,0],[0.75,1,0],[1,1,0],[0,0.25,0],[0,0.5,0],[0,0.75,0],[1,0.25,0],[1,0.5,0],[1,0.75,0]];outlineConnect=0;fontColor=#232F3E;fillColor=#ED7100;strokeColor=#ffffff;dashed=0;verticalLabelPosition=bottom;verticalAlign=top;align=center;html=1;fontSize=12;fontStyle=0;aspect=fixed;shape=mxgraph.aws4.resourceIcon;resIcon=mxgraph.aws4.ec2;" vertex="1" parent="oJM-QH1wbEqwgT6jP4RW-4">
          <mxGeometry x="80" y="70" width="38" height="38" as="geometry" />
        </mxCell>
        <mxCell id="nNxd906b-8G5X-YyZnIa-9" value="EC2" style="sketch=0;points=[[0,0,0],[0.25,0,0],[0.5,0,0],[0.75,0,0],[1,0,0],[0,1,0],[0.25,1,0],[0.5,1,0],[0.75,1,0],[1,1,0],[0,0.25,0],[0,0.5,0],[0,0.75,0],[1,0.25,0],[1,0.5,0],[1,0.75,0]];outlineConnect=0;fontColor=#232F3E;fillColor=#ED7100;strokeColor=#ffffff;dashed=0;verticalLabelPosition=bottom;verticalAlign=top;align=center;html=1;fontSize=12;fontStyle=0;aspect=fixed;shape=mxgraph.aws4.resourceIcon;resIcon=mxgraph.aws4.ec2;" vertex="1" parent="oJM-QH1wbEqwgT6jP4RW-4">
          <mxGeometry x="140" y="70" width="38" height="38" as="geometry" />
        </mxCell>
        <mxCell id="nNxd906b-8G5X-YyZnIa-11" value="" style="edgeStyle=orthogonalEdgeStyle;rounded=0;orthogonalLoop=1;jettySize=auto;html=1;exitX=0.5;exitY=0;exitDx=0;exitDy=0;" edge="1" parent="nNxd906b-8G5X-YyZnIa-1" source="nNxd906b-8G5X-YyZnIa-99" target="UBAS4pGQuPnV54A2ei4c-2">
          <mxGeometry relative="1" as="geometry">
            <mxPoint x="261" y="270.0000000000001" as="sourcePoint" />
            <Array as="points" />
          </mxGeometry>
        </mxCell>
        <mxCell id="nNxd906b-8G5X-YyZnIa-16" style="edgeStyle=orthogonalEdgeStyle;rounded=0;orthogonalLoop=1;jettySize=auto;html=1;dashed=1;entryX=0.506;entryY=1.017;entryDx=0;entryDy=0;entryPerimeter=0;" edge="1" parent="nNxd906b-8G5X-YyZnIa-1" source="nNxd906b-8G5X-YyZnIa-9" target="nNxd906b-8G5X-YyZnIa-103">
          <mxGeometry relative="1" as="geometry">
            <mxPoint x="261" y="330" as="targetPoint" />
            <Array as="points">
              <mxPoint x="261" y="399" />
            </Array>
          </mxGeometry>
        </mxCell>
        <mxCell id="nNxd906b-8G5X-YyZnIa-17" style="edgeStyle=orthogonalEdgeStyle;rounded=0;orthogonalLoop=1;jettySize=auto;html=1;dashed=1;entryX=0.108;entryY=1.183;entryDx=0;entryDy=0;entryPerimeter=0;" edge="1" parent="nNxd906b-8G5X-YyZnIa-1" source="nNxd906b-8G5X-YyZnIa-5" target="nNxd906b-8G5X-YyZnIa-110">
          <mxGeometry relative="1" as="geometry">
            <mxPoint x="230" y="109.99999999999989" as="targetPoint" />
            <Array as="points">
              <mxPoint x="190" y="150" />
              <mxPoint x="189" y="134" />
            </Array>
          </mxGeometry>
        </mxCell>
        <mxCell id="UBAS4pGQuPnV54A2ei4c-3" value="&lt;b&gt;IGW&lt;/b&gt;" style="sketch=0;outlineConnect=0;fontColor=#232F3E;gradientColor=none;fillColor=#8C4FFF;strokeColor=none;dashed=0;verticalLabelPosition=bottom;verticalAlign=top;align=center;html=1;fontSize=12;fontStyle=0;aspect=fixed;pointerEvents=1;shape=mxgraph.aws4.internet_gateway;" parent="nNxd906b-8G5X-YyZnIa-1" vertex="1">
          <mxGeometry x="245" y="-10" width="30" height="30" as="geometry" />
        </mxCell>
        <mxCell id="nNxd906b-8G5X-YyZnIa-13" style="edgeStyle=orthogonalEdgeStyle;rounded=0;orthogonalLoop=1;jettySize=auto;html=1;startArrow=classic;startFill=1;exitX=0.5;exitY=0;exitDx=0;exitDy=0;" edge="1" parent="nNxd906b-8G5X-YyZnIa-1" source="nNxd906b-8G5X-YyZnIa-106" target="UBAS4pGQuPnV54A2ei4c-3">
          <mxGeometry relative="1" as="geometry">
            <mxPoint x="260" y="60.000000000000114" as="sourcePoint" />
          </mxGeometry>
        </mxCell>
        <mxCell id="nNxd906b-8G5X-YyZnIa-99" value="Private subnet route table" style="shape=table;startSize=20;container=1;collapsible=0;childLayout=tableLayout;strokeColor=default;fontSize=14;labelBackgroundColor=none;gradientColor=none;swimlaneFillColor=default;" vertex="1" parent="nNxd906b-8G5X-YyZnIa-1">
          <mxGeometry x="170" y="280" width="180" height="60" as="geometry" />
        </mxCell>
        <mxCell id="nNxd906b-8G5X-YyZnIa-100" value="" style="shape=tableRow;horizontal=0;startSize=0;swimlaneHead=0;swimlaneBody=0;strokeColor=inherit;top=0;left=0;bottom=0;right=0;collapsible=0;dropTarget=0;fillColor=none;points=[[0,0.5],[1,0.5]];portConstraint=eastwest;fontSize=16;swimlaneFillColor=default;" vertex="1" parent="nNxd906b-8G5X-YyZnIa-99">
          <mxGeometry y="20" width="180" height="20" as="geometry" />
        </mxCell>
        <mxCell id="nNxd906b-8G5X-YyZnIa-101" value="Destination" style="shape=partialRectangle;html=1;whiteSpace=wrap;connectable=0;strokeColor=inherit;overflow=hidden;fillColor=none;top=0;left=0;bottom=0;right=0;pointerEvents=1;fontSize=14;swimlaneFillColor=default;" vertex="1" parent="nNxd906b-8G5X-YyZnIa-100">
          <mxGeometry width="91" height="20" as="geometry">
            <mxRectangle width="91" height="20" as="alternateBounds" />
          </mxGeometry>
        </mxCell>
        <mxCell id="nNxd906b-8G5X-YyZnIa-102" value="Target" style="shape=partialRectangle;html=1;whiteSpace=wrap;connectable=0;strokeColor=inherit;overflow=hidden;fillColor=none;top=0;left=0;bottom=0;right=0;pointerEvents=1;fontSize=14;swimlaneFillColor=default;" vertex="1" parent="nNxd906b-8G5X-YyZnIa-100">
          <mxGeometry x="91" width="89" height="20" as="geometry">
            <mxRectangle width="89" height="20" as="alternateBounds" />
          </mxGeometry>
        </mxCell>
        <mxCell id="nNxd906b-8G5X-YyZnIa-103" value="" style="shape=tableRow;horizontal=0;startSize=0;swimlaneHead=0;swimlaneBody=0;strokeColor=inherit;top=0;left=0;bottom=0;right=0;collapsible=0;dropTarget=0;fillColor=none;points=[[0,0.5],[1,0.5]];portConstraint=eastwest;fontSize=16;swimlaneFillColor=default;" vertex="1" parent="nNxd906b-8G5X-YyZnIa-99">
          <mxGeometry y="40" width="180" height="20" as="geometry" />
        </mxCell>
        <mxCell id="nNxd906b-8G5X-YyZnIa-104" value="0.0.0.0/0" style="shape=partialRectangle;html=1;whiteSpace=wrap;connectable=0;strokeColor=inherit;overflow=hidden;fillColor=none;top=0;left=0;bottom=0;right=0;pointerEvents=1;fontSize=14;swimlaneFillColor=default;" vertex="1" parent="nNxd906b-8G5X-YyZnIa-103">
          <mxGeometry width="91" height="20" as="geometry">
            <mxRectangle width="91" height="20" as="alternateBounds" />
          </mxGeometry>
        </mxCell>
        <mxCell id="nNxd906b-8G5X-YyZnIa-105" value="NGW-ID" style="shape=partialRectangle;html=1;whiteSpace=wrap;connectable=0;strokeColor=inherit;overflow=hidden;fillColor=none;top=0;left=0;bottom=0;right=0;pointerEvents=1;fontSize=14;swimlaneFillColor=default;" vertex="1" parent="nNxd906b-8G5X-YyZnIa-103">
          <mxGeometry x="91" width="89" height="20" as="geometry">
            <mxRectangle width="89" height="20" as="alternateBounds" />
          </mxGeometry>
        </mxCell>
        <mxCell id="nNxd906b-8G5X-YyZnIa-106" value="Public subnet route table" style="shape=table;startSize=20;container=1;collapsible=0;childLayout=tableLayout;strokeColor=default;fontSize=14;labelBackgroundColor=none;gradientColor=none;swimlaneFillColor=default;" vertex="1" parent="nNxd906b-8G5X-YyZnIa-1">
          <mxGeometry x="170" y="70" width="180" height="60" as="geometry" />
        </mxCell>
        <mxCell id="nNxd906b-8G5X-YyZnIa-107" value="" style="shape=tableRow;horizontal=0;startSize=0;swimlaneHead=0;swimlaneBody=0;strokeColor=inherit;top=0;left=0;bottom=0;right=0;collapsible=0;dropTarget=0;fillColor=none;points=[[0,0.5],[1,0.5]];portConstraint=eastwest;fontSize=16;swimlaneFillColor=default;" vertex="1" parent="nNxd906b-8G5X-YyZnIa-106">
          <mxGeometry y="20" width="180" height="20" as="geometry" />
        </mxCell>
        <mxCell id="nNxd906b-8G5X-YyZnIa-108" value="Destination" style="shape=partialRectangle;html=1;whiteSpace=wrap;connectable=0;strokeColor=inherit;overflow=hidden;fillColor=none;top=0;left=0;bottom=0;right=0;pointerEvents=1;fontSize=14;swimlaneFillColor=default;" vertex="1" parent="nNxd906b-8G5X-YyZnIa-107">
          <mxGeometry width="91" height="20" as="geometry">
            <mxRectangle width="91" height="20" as="alternateBounds" />
          </mxGeometry>
        </mxCell>
        <mxCell id="nNxd906b-8G5X-YyZnIa-109" value="Target" style="shape=partialRectangle;html=1;whiteSpace=wrap;connectable=0;strokeColor=inherit;overflow=hidden;fillColor=none;top=0;left=0;bottom=0;right=0;pointerEvents=1;fontSize=14;swimlaneFillColor=default;" vertex="1" parent="nNxd906b-8G5X-YyZnIa-107">
          <mxGeometry x="91" width="89" height="20" as="geometry">
            <mxRectangle width="89" height="20" as="alternateBounds" />
          </mxGeometry>
        </mxCell>
        <mxCell id="nNxd906b-8G5X-YyZnIa-110" value="" style="shape=tableRow;horizontal=0;startSize=0;swimlaneHead=0;swimlaneBody=0;strokeColor=inherit;top=0;left=0;bottom=0;right=0;collapsible=0;dropTarget=0;fillColor=none;points=[[0,0.5],[1,0.5]];portConstraint=eastwest;fontSize=16;swimlaneFillColor=default;" vertex="1" parent="nNxd906b-8G5X-YyZnIa-106">
          <mxGeometry y="40" width="180" height="20" as="geometry" />
        </mxCell>
        <mxCell id="nNxd906b-8G5X-YyZnIa-111" value="0.0.0.0/0" style="shape=partialRectangle;html=1;whiteSpace=wrap;connectable=0;strokeColor=inherit;overflow=hidden;fillColor=none;top=0;left=0;bottom=0;right=0;pointerEvents=1;fontSize=14;swimlaneFillColor=default;" vertex="1" parent="nNxd906b-8G5X-YyZnIa-110">
          <mxGeometry width="91" height="20" as="geometry">
            <mxRectangle width="91" height="20" as="alternateBounds" />
          </mxGeometry>
        </mxCell>
        <mxCell id="nNxd906b-8G5X-YyZnIa-112" value="IGW-ID" style="shape=partialRectangle;html=1;whiteSpace=wrap;connectable=0;strokeColor=inherit;overflow=hidden;fillColor=none;top=0;left=0;bottom=0;right=0;pointerEvents=1;fontSize=14;swimlaneFillColor=default;" vertex="1" parent="nNxd906b-8G5X-YyZnIa-110">
          <mxGeometry x="91" width="89" height="20" as="geometry">
            <mxRectangle width="89" height="20" as="alternateBounds" />
          </mxGeometry>
        </mxCell>
        <mxCell id="nNxd906b-8G5X-YyZnIa-113" style="edgeStyle=orthogonalEdgeStyle;rounded=0;orthogonalLoop=1;jettySize=auto;html=1;dashed=1;entryX=0.5;entryY=1;entryDx=0;entryDy=0;entryPerimeter=0;" edge="1" parent="nNxd906b-8G5X-YyZnIa-1" source="UBAS4pGQuPnV54A2ei4c-2" target="nNxd906b-8G5X-YyZnIa-110">
          <mxGeometry relative="1" as="geometry">
            <Array as="points" />
          </mxGeometry>
        </mxCell>
        <mxCell id="nNxd906b-8G5X-YyZnIa-15" value="" style="edgeStyle=orthogonalEdgeStyle;rounded=0;orthogonalLoop=1;jettySize=auto;html=1;startArrow=classic;startFill=1;" edge="1" parent="1" source="UBAS4pGQuPnV54A2ei4c-3" target="nNxd906b-8G5X-YyZnIa-14">
          <mxGeometry relative="1" as="geometry" />
        </mxCell>
        <mxCell id="nNxd906b-8G5X-YyZnIa-14" value="Internet" style="image;aspect=fixed;perimeter=ellipsePerimeter;html=1;align=center;shadow=0;dashed=0;spacingTop=3;image=img/lib/active_directory/internet_cloud.svg;" vertex="1" parent="1">
          <mxGeometry x="275" y="40" width="50" height="31.5" as="geometry" />
        </mxCell>
        <mxCell id="nNxd906b-8G5X-YyZnIa-114" value="Internal EC2 communication" style="shape=table;startSize=20;container=1;collapsible=0;childLayout=tableLayout;strokeColor=default;fontSize=14;labelBackgroundColor=none;gradientColor=none;swimlaneFillColor=default;" vertex="1" parent="1">
          <mxGeometry x="450" y="140" width="190" height="60" as="geometry" />
        </mxCell>
        <mxCell id="nNxd906b-8G5X-YyZnIa-115" value="" style="shape=tableRow;horizontal=0;startSize=0;swimlaneHead=0;swimlaneBody=0;strokeColor=inherit;top=0;left=0;bottom=0;right=0;collapsible=0;dropTarget=0;fillColor=none;points=[[0,0.5],[1,0.5]];portConstraint=eastwest;fontSize=16;swimlaneFillColor=default;" vertex="1" parent="nNxd906b-8G5X-YyZnIa-114">
          <mxGeometry y="20" width="190" height="20" as="geometry" />
        </mxCell>
        <mxCell id="nNxd906b-8G5X-YyZnIa-116" value="Destination" style="shape=partialRectangle;html=1;whiteSpace=wrap;connectable=0;strokeColor=inherit;overflow=hidden;fillColor=none;top=0;left=0;bottom=0;right=0;pointerEvents=1;fontSize=14;swimlaneFillColor=default;" vertex="1" parent="nNxd906b-8G5X-YyZnIa-115">
          <mxGeometry width="96" height="20" as="geometry">
            <mxRectangle width="96" height="20" as="alternateBounds" />
          </mxGeometry>
        </mxCell>
        <mxCell id="nNxd906b-8G5X-YyZnIa-117" value="Target" style="shape=partialRectangle;html=1;whiteSpace=wrap;connectable=0;strokeColor=inherit;overflow=hidden;fillColor=none;top=0;left=0;bottom=0;right=0;pointerEvents=1;fontSize=14;swimlaneFillColor=default;" vertex="1" parent="nNxd906b-8G5X-YyZnIa-115">
          <mxGeometry x="96" width="94" height="20" as="geometry">
            <mxRectangle width="94" height="20" as="alternateBounds" />
          </mxGeometry>
        </mxCell>
        <mxCell id="nNxd906b-8G5X-YyZnIa-118" value="" style="shape=tableRow;horizontal=0;startSize=0;swimlaneHead=0;swimlaneBody=0;strokeColor=inherit;top=0;left=0;bottom=0;right=0;collapsible=0;dropTarget=0;fillColor=none;points=[[0,0.5],[1,0.5]];portConstraint=eastwest;fontSize=16;swimlaneFillColor=default;" vertex="1" parent="nNxd906b-8G5X-YyZnIa-114">
          <mxGeometry y="40" width="190" height="20" as="geometry" />
        </mxCell>
        <mxCell id="nNxd906b-8G5X-YyZnIa-119" value="internal IP" style="shape=partialRectangle;html=1;whiteSpace=wrap;connectable=0;strokeColor=inherit;overflow=hidden;fillColor=none;top=0;left=0;bottom=0;right=0;pointerEvents=1;fontSize=14;swimlaneFillColor=default;" vertex="1" parent="nNxd906b-8G5X-YyZnIa-118">
          <mxGeometry width="96" height="20" as="geometry">
            <mxRectangle width="96" height="20" as="alternateBounds" />
          </mxGeometry>
        </mxCell>
        <mxCell id="nNxd906b-8G5X-YyZnIa-120" value="local" style="shape=partialRectangle;html=1;whiteSpace=wrap;connectable=0;strokeColor=inherit;overflow=hidden;fillColor=none;top=0;left=0;bottom=0;right=0;pointerEvents=1;fontSize=14;swimlaneFillColor=default;" vertex="1" parent="nNxd906b-8G5X-YyZnIa-118">
          <mxGeometry x="96" width="94" height="20" as="geometry">
            <mxRectangle width="94" height="20" as="alternateBounds" />
          </mxGeometry>
        </mxCell>
        <mxCell id="nNxd906b-8G5X-YyZnIa-122" value="&lt;font style=&quot;font-size: 14px;&quot;&gt;&amp;nbsp;- IGW is created at VPC level&lt;/font&gt;&lt;div&gt;&lt;font style=&quot;font-size: 14px;&quot;&gt;&amp;nbsp;- Route tables are created at VPC level&lt;/font&gt;&lt;/div&gt;&lt;div&gt;&lt;font style=&quot;font-size: 14px;&quot;&gt;&amp;nbsp;- NGW is created at public subnet level&lt;/font&gt;&lt;/div&gt;" style="rounded=0;whiteSpace=wrap;html=1;align=left;" vertex="1" parent="1">
          <mxGeometry x="450" y="220" width="260" height="60" as="geometry" />
        </mxCell>
      </root>
    </mxGraphModel>
  </diagram>
</mxfile>
